<svg xmlns="http://www.w3.org/2000/svg" viewBox="0 0 475.15 475.15"><defs><style>.cls-4{fill:none;}</style></defs><g id="Layer_2" data-name="Layer 2"><g id="Layer_1-2" data-name="Layer 1"><path d="M4.68,216.65l.87-8.29,36.34-8.69-.84,7.93-7.44,1.56-1.37,12.9,6.95,3.13-.8,7.66Zm21.74,2.78.95-9-14.25,3Z"/><path d="M22.09,194.76l-4.72-1.11.83-3.53-7.07-1.66,1.53-6.56,7.08,1.65,1-4.11,4.72,1.1-1,4.12,13.4,3.14c1,.24,1.72.27,2,.06s.64-1,1-2.33c0-.2.09-.41.13-.64s.09-.45.12-.67l5,1.16-.62,3.17q-.94,4.74-3.13,6a5,5,0,0,1-3.78.29l-15.61-3.66Z"/><path d="M26.11,177.94l-4.62-1.48L22.6,173l-6.92-2.21,2.05-6.42,6.92,2.21,1.29-4L30.56,164l-1.29,4,13.11,4.19a3.07,3.07,0,0,0,2,.22c.33-.18.71-.92,1.13-2.24.06-.2.13-.41.19-.63s.12-.45.17-.66l4.85,1.55-.87,3.11q-1.31,4.65-3.6,5.77a5,5,0,0,1-3.79,0l-15.27-4.88Z"/><path d="M41.25,151.26a10.6,10.6,0,0,0,.55-2.73,2,2,0,0,0-1.18-2.12,2.27,2.27,0,0,0-2.47.13,7,7,0,0,0-1.89,2.78A4.36,4.36,0,0,0,36,153a4.78,4.78,0,0,0,1.8,1.85l-2.65,6a10,10,0,0,1-4.37-4q-2.06-3.87.61-9.91a16.69,16.69,0,0,1,4.63-6.3c1.93-1.58,4.34-1.74,7.21-.47L54.11,145c.76.33,1.68.72,2.77,1.17a3.71,3.71,0,0,0,1.83.36,2.36,2.36,0,0,0,1.13-.6l.91.41-3,6.77a7.57,7.57,0,0,1-1.53-.2c-.46-.11-1-.27-1.52-.46a14.16,14.16,0,0,1,1.06,4,9.87,9.87,0,0,1-.86,5.09,8.57,8.57,0,0,1-4.22,4.56,7.17,7.17,0,0,1-6.17-.19,7.41,7.41,0,0,1-4.86-6.22,16.81,16.81,0,0,1,.9-6.18Zm4.59-2.53a8.22,8.22,0,0,1,.07,1.47,11.75,11.75,0,0,1-.31,1.87l-.37,1.53a10.25,10.25,0,0,0-.41,3.24,3.12,3.12,0,0,0,2,2.64,3,3,0,0,0,2.7.12,3.75,3.75,0,0,0,1.68-1.88,7.12,7.12,0,0,0,.48-4.28q-.43-2.24-3.52-3.69Z"/><path d="M56.29,121.33a6.21,6.21,0,0,0-2.76-.53,4.1,4.1,0,0,0-3.2,2.23,4.69,4.69,0,0,0,.46,5.81,14.35,14.35,0,0,0,3.76,3.08,13.1,13.1,0,0,0,4.28,1.82A4.57,4.57,0,0,0,64,131.5a4.09,4.09,0,0,0,.67-3.58,6.45,6.45,0,0,0-2.23-2.78l3.62-5.94a11.36,11.36,0,0,1,3.85,5q2.15,5.07-1.12,10.43c-2.18,3.59-4.85,5.57-8,6a15,15,0,0,1-9.8-2.5q-5.73-3.48-7.2-8.22a11.39,11.39,0,0,1,1.52-9.66,13.62,13.62,0,0,1,6-5.71q3.49-1.51,8.56.88Z"/><path d="M49,99.21,53.17,94,68,105.92,65.7,93.07,71,86.47l1.69,13.36,18.72,2.63-5.2,6.46L73.6,106.85l.52,4L80.5,116l-4.2,5.2Z"/><path d="M84.47,60.3l15.91,13.23,4.21,3.85-2.52-5L93,53.84l6.17-4.7,15.55,13.51,4.26,3.82-2.41-5-8.61-19.06,6-4.54,13.45,34-5.6,4.26L105.85,62.39l-5.11-4.66,3.14,6.17,9.09,19L107.53,87,78.25,65Z"/><path d="M129.8,36.9l-6,3.37-3.06-5.49,6-3.37ZM125.28,43l6-3.36L144,62.37l-6,3.36Z"/><path d="M138,41.73,136,37.33l3.29-1.53-3.07-6.59,6.11-2.84L145.37,33l3.84-1.79,2,4.4-3.83,1.79,5.81,12.47c.45,1,.86,1.51,1.21,1.64a4.54,4.54,0,0,0,2.42-.69l.59-.29.61-.32,2.15,4.61-2.88,1.47c-2.87,1.46-5.1,1.89-6.68,1.27a5,5,0,0,1-2.57-2.78l-6.77-14.54Z"/><path d="M172.71,22.52a7.58,7.58,0,0,1,3.87,1.4,6.8,6.8,0,0,1,2.19,2.43A36.53,36.53,0,0,1,180.6,31l4.87,14.51-6.59,2.22-5-15a7,7,0,0,0-1.75-3,3.56,3.56,0,0,0-3.91-.61,4.81,4.81,0,0,0-3.28,3,8.25,8.25,0,0,0,.32,5.32l4.49,13.38L163.25,53,152.08,19.73l6.45-2.16,4,11.78a8.29,8.29,0,0,1,2.23-4.09,9.64,9.64,0,0,1,3.58-2.15A10.9,10.9,0,0,1,172.71,22.52Z"/><path d="M207.94,30.09a7.27,7.27,0,0,0,1.71,3.45q2.06,2,6.47,1.49a13.23,13.23,0,0,0,4.23-1,4.11,4.11,0,0,0,2.7-4.4,3,3,0,0,0-1.82-2.52,16.77,16.77,0,0,0-5-1.12l-3.89-.43c-3.81-.43-6.47-1.05-8-1.87q-3.79-2-4.35-7.2a10.17,10.17,0,0,1,2.63-8.19q3.13-3.48,9.85-4.19A15.7,15.7,0,0,1,222.35,6a10.51,10.51,0,0,1,5.06,8.08l-7,.75a5,5,0,0,0-3.3-4.19,9.81,9.81,0,0,0-4.45-.42,8.31,8.31,0,0,0-4.51,1.64,3.61,3.61,0,0,0-1.39,3.36,3,3,0,0,0,2,2.63,21.63,21.63,0,0,0,4.81.95l6.3.8a15.77,15.77,0,0,1,6.33,1.9,8.6,8.6,0,0,1,3.89,6.82,10.09,10.09,0,0,1-2.86,8.36Q223.82,40.25,217,41t-11.21-2A10.41,10.41,0,0,1,201,30.83Z"/><path d="M232.39,17.94l.08-4.85,3.64.06.11-7.26L243,6l-.12,7.26,4.23.07L247,18.18l-4.23-.07-.22,13.76a3.11,3.11,0,0,0,.37,2,4.44,4.44,0,0,0,2.48.44h.66l.68,0-.08,5.09-3.23.07q-4.83.09-6.57-1.78A5,5,0,0,1,235.77,34L236,18Z"/><path d="M267.33,14.16l.58.09-.67,6.94c-.42-.09-.8-.15-1.13-.2l-.81-.1q-4.08-.39-5.75,2.14a10.56,10.56,0,0,0-1.22,4.54L257.14,40l-6.82-.65,2.47-25.93,6.48.62-.44,4.52a14.34,14.34,0,0,1,3.08-3.29,7.51,7.51,0,0,1,5.1-1.12Z"/><path d="M281.76,27.73a11.07,11.07,0,0,0,2.79,0,2,2,0,0,0,1.83-1.59,2.28,2.28,0,0,0-.65-2.4,7.11,7.11,0,0,0-3.11-1.27,4.32,4.32,0,0,0-3.63.45A4.87,4.87,0,0,0,277.55,25l-6.43-1.35a10,10,0,0,1,3-5.1q3.36-2.8,9.82-1.45a16.54,16.54,0,0,1,7.12,3.23c2,1.56,2.59,3.88,2,7L290.58,39c-.17.82-.36,1.8-.57,3a3.79,3.79,0,0,0,0,1.86,2.49,2.49,0,0,0,.82,1l-.2,1-7.25-1.52a7.07,7.07,0,0,1-.12-1.54c0-.47.06-1,.14-1.58A13.94,13.94,0,0,1,279.68,43a9.81,9.81,0,0,1-5.15.22A8.59,8.59,0,0,1,269.2,40,7.2,7.2,0,0,1,268.1,34a7.42,7.42,0,0,1,5.08-6,16.51,16.51,0,0,1,6.24-.4Zm3.42,4a6.92,6.92,0,0,1-1.42.37,10.37,10.37,0,0,1-1.89.08l-1.58,0a10.47,10.47,0,0,0-3.25.26,3.11,3.11,0,0,0-2.17,2.5,3,3,0,0,0,.44,2.67,3.77,3.77,0,0,0,2.18,1.25,7.11,7.11,0,0,0,4.29-.41q2.12-.89,2.88-4.21Z"/><path d="M298,26.33l1.5-4.62,3.45,1.12,2.24-6.91L311.56,18l-2.23,6.91,4,1.3-1.49,4.61-4-1.3-4.24,13.1a3.13,3.13,0,0,0-.23,2q.27.49,2.25,1.14l.63.19.66.18L305.33,51l-3.11-.88c-3.09-.89-5-2.09-5.76-3.62a5,5,0,0,1,0-3.79l4.94-15.25Z"/><path d="M324.6,41.57a11,11,0,0,0,2.73.56A2,2,0,0,0,329.46,41a2.29,2.29,0,0,0-.13-2.47,7.11,7.11,0,0,0-2.77-1.9,4.35,4.35,0,0,0-3.66-.32,4.89,4.89,0,0,0-1.85,1.79l-6-2.68a10,10,0,0,1,4-4.34q3.89-2,9.91.64a16.66,16.66,0,0,1,6.28,4.65q2.36,2.91.44,7.21l-4.86,10.92c-.33.75-.73,1.68-1.18,2.77A3.82,3.82,0,0,0,329.3,59a2.55,2.55,0,0,0,.6,1.13l-.41.92-6.76-3a7.77,7.77,0,0,1,.2-1.53c.12-.45.28-1,.47-1.51a14.22,14.22,0,0,1-4,1,9.88,9.88,0,0,1-5.09-.87A8.64,8.64,0,0,1,309.73,51a7.14,7.14,0,0,1,.21-6.17A7.42,7.42,0,0,1,316.17,40a16.63,16.63,0,0,1,6.18.92Zm2.51,4.59a8.22,8.22,0,0,1-1.47.07,11.87,11.87,0,0,1-1.86-.32l-1.53-.37a10.07,10.07,0,0,0-3.24-.42,3.53,3.53,0,0,0-2.78,4.69,3.73,3.73,0,0,0,1.87,1.68,7.12,7.12,0,0,0,4.28.49q2.25-.4,3.7-3.5Z"/><path d="M357.17,47.39a8.2,8.2,0,0,1,1.41,5.32l2-3.18L366.2,53,353.13,74q-2.65,4.27-5.46,5.55-4.8,2.19-11.81-2.18a15.18,15.18,0,0,1-5.88-6,7.24,7.24,0,0,1,.13-6.82l6.29,3.92a3.05,3.05,0,0,0-.12,1.95,5.7,5.7,0,0,0,2.65,2.75q3.12,2,5.48.52a12.62,12.62,0,0,0,3.5-4.07l.88-1.42a8.14,8.14,0,0,1-3.11,1,8.41,8.41,0,0,1-5.3-1.47,10,10,0,0,1-4.94-7.23q-.69-4.57,2.5-9.69a16.09,16.09,0,0,1,7.61-6.76,9.56,9.56,0,0,1,9,1A8.77,8.77,0,0,1,357.17,47.39Zm-7.91,17.07q2.36-.66,4.44-4a8.84,8.84,0,0,0,1.66-5.61A5.08,5.08,0,0,0,352.83,51a4.91,4.91,0,0,0-6,.26,12,12,0,0,0-2.94,3.37,10.12,10.12,0,0,0-1.49,3.83,5,5,0,0,0,2.46,5.42A5.21,5.21,0,0,0,349.26,64.46Z"/><path d="M386,69.56a10.47,10.47,0,0,1,1,5.84,12.82,12.82,0,0,1-1.85,5.46A33.42,33.42,0,0,1,382,85L367.42,72.83q-2.39,3.12-1.43,6A6.89,6.89,0,0,0,368.25,82a5.75,5.75,0,0,0,3.67,1.51,5.64,5.64,0,0,0,2.22-.48l5.35,4.45a8.48,8.48,0,0,1-5,2q-5.11.67-10-3.36a14.17,14.17,0,0,1-5-8.33q-1-5,3.62-10.56,4.33-5.19,9.4-5.67a12.53,12.53,0,0,1,9.47,3.19A14.74,14.74,0,0,1,386,69.56Zm-11.59-2a7.06,7.06,0,0,0-4,1.94l9,7.51a5.71,5.71,0,0,0,1.24-4.32,6,6,0,0,0-2.2-3.67A5.45,5.45,0,0,0,374.4,67.55Z"/><path d="M417.5,102.53a7.62,7.62,0,0,1,.18,3.83,7.4,7.4,0,0,1-1.58,3.3,23.49,23.49,0,0,1-2.77,2.68L400.81,123l-4.53-5.31,12.62-10.76a5.43,5.43,0,0,0,1.54-2,3.38,3.38,0,0,0-.79-3.72,3.93,3.93,0,0,0-4.31-1.45,7.47,7.47,0,0,0-2.63,1.52l-11.8,10.07-4.45-5.22,11.8-10.06a8.93,8.93,0,0,0,2.26-2.55,3.35,3.35,0,0,0-.75-3.79c-1.27-1.48-2.59-2.07-4-1.76a7.3,7.3,0,0,0-2.8,1.66L381.07,99.81l-4.49-5.25,19.79-16.87,4.29,5-2.89,2.47a10.81,10.81,0,0,1,3.75-.06,8.25,8.25,0,0,1,4.5,2.92,8.12,8.12,0,0,1,2.13,4.52,7.64,7.64,0,0,1-.92,3.74,8.71,8.71,0,0,1,4.72.34,10.09,10.09,0,0,1,3.85,2.87A9.11,9.11,0,0,1,417.5,102.53Z"/><circle class="cls-99" cx="237.58" cy="237.58" r="237.58"/></g></g></svg>