<svg xmlns="http://www.w3.org/2000/svg" viewBox="0 0 475.15 475.15"><defs><style>.cls-1{fill:#9ed9e6;}.cls-99{fill:none;}</style></defs><g id="Layer_2" data-name="Layer 2"><g id="Layer_1-2" data-name="Layer 1"><path class="cls-1" d="M237.58,55.12A182.46,182.46,0,1,0,420,237.58,182.46,182.46,0,0,0,237.58,55.12ZM368.94,300.68c-.34,1.09-.77,2.16-1.15,3.24a53.9,53.9,0,0,1-6,12.28c-1.56,2.34-3.06,4.71-4.65,7a29.52,29.52,0,0,1-2.35,2.78,5.27,5.27,0,0,1-1,.72c-.59.42-1.18.85-1.8,1.24a8.49,8.49,0,0,1-4,1.35,40,40,0,0,1-7.33-.69,39.29,39.29,0,0,1-7.83-2.14c-4.19-1.52-8.45-2.89-12.61-4.5a84.88,84.88,0,0,1-10-4.48,22.68,22.68,0,0,1-7.56-6.95A143.17,143.17,0,0,0,293,298.82a27.87,27.87,0,0,1-2-2.58c-.79-1.09-1.55-2.19-2.3-3.3s-1.52-2.28-2.25-3.44-1.35-2.24-2.06-3.34c-1.06-1.63-2.16-3.24-3.25-4.86A.67.67,0,0,0,281,281c-.71,3-2.5,5.24-4.26,7.46-1.54,1.95-3.45,3.6-5.13,5.42-.81.87-1.48,1.84-2.21,2.76a8.33,8.33,0,0,1-1,1.24c-1.61,1.31-3.22,2.63-4.9,3.84-1.34,1-2.8,1.77-4.18,2.68a18.09,18.09,0,0,1-5.66,2.52c-.9.22-1.8.4-2.72.55a21.12,21.12,0,0,0-4,1.14c-1.46.54-2.95,1-4.37,1.65a10.64,10.64,0,0,1-5.18,1.19,7,7,0,0,1-1.89-.24,24,24,0,0,0-3.65-.71,4.11,4.11,0,0,1-1.42-.52,22.89,22.89,0,0,0-5.1-2.35c-1.73-.65-3.47-1.28-5.14-2.08a17.08,17.08,0,0,1-2.93-2c-1.75-1.34-3.49-2.69-5.15-4.13a11.74,11.74,0,0,1-3.19-4.71,17.4,17.4,0,0,0-2-3.35,12.86,12.86,0,0,1-1.52-2.86,38.28,38.28,0,0,1-2-8,9.16,9.16,0,0,0-.23-.89c-.19.37-.34.62-.46.88-.8,1.91-1.58,3.83-2.39,5.74a18.14,18.14,0,0,1-2.9,4.81,3.91,3.91,0,0,0-.6.86q-1.14,2.21-2.25,4.43l0,.09c-.69,1.22-1.34,2.46-2.08,3.65-1.56,2.52-3.16,5-4.76,7.51-1,1.53-1.91,3.11-3,4.57a12.69,12.69,0,0,1-4.92,4c-1.24.59-2.49,1.16-3.75,1.69a11.47,11.47,0,0,1-4.35.56,23.11,23.11,0,0,0-11.14,3c-2.14,1.27-4.23,2.64-6.38,3.89a122.45,122.45,0,0,1-12.15,6.29c-1.07.48-2.17.92-3.27,1.33a9.4,9.4,0,0,1-4.43.55,52.22,52.22,0,0,1-6.45-.84,30.74,30.74,0,0,1-3.67-1,9.77,9.77,0,0,1-3.94-2.64,55.18,55.18,0,0,1-5.29-6.42,14.69,14.69,0,0,0-2.17-2.43,7.15,7.15,0,0,1-2.15-4.37,6.85,6.85,0,0,1,.12-1.62c.21-1.64.43-3.29.67-4.93a106.81,106.81,0,0,1,3.93-16.15c.44-1.4.84-2.82,1.14-4.25a34.3,34.3,0,0,1,3.53-8.76,45.81,45.81,0,0,1,4.52-6.51,24.17,24.17,0,0,1,2.28-2.47,23.75,23.75,0,0,1,5.83-4.12c2.11-1.11,4.16-2.34,6.31-3.4a8.36,8.36,0,0,0,1.3-.82,33.77,33.77,0,0,1,7.72-4c1.44-.57,3-1,4.44-1.46,2.38-.8,4.81-1.5,7.14-2.45a24.18,24.18,0,0,1,5.88-1.6c.85-.12,1.71-.23,2.55-.4,2.11-.42,4.2-.07,6.31,0s4,.1,6,.12c.48,0,.95-.06,1.5-.1a2.35,2.35,0,0,0-.1-.48,8.78,8.78,0,0,1-.3-4.81,8.59,8.59,0,0,1,1.24-2.88c.95-1.65,2-3.25,3.05-4.91-.05,0-.11-.13-.18-.16a8.37,8.37,0,0,1-4.15-3.68,14.61,14.61,0,0,1-1.91-5.67,24.11,24.11,0,0,1,0-7.44,11.72,11.72,0,0,1,.69-2.28,32.54,32.54,0,0,1,3-5.77,2.57,2.57,0,0,0-.16-3.27c-.76-.95-1.46-1.94-2.27-2.85a16.24,16.24,0,0,1-2.86-5.69,2.36,2.36,0,0,1-.12-.75,38.13,38.13,0,0,1,.75-8.86c.64-2.66,1.48-5.28,2.23-7.92.26-.92.48-1.85.75-2.77a.64.64,0,0,0-.25-.75c-1-.86-2-1.76-3.1-2.56a11.18,11.18,0,0,0-6.22-2.23c-2.17-.13-4.35-.07-6.52-.08a7.69,7.69,0,0,0-1,0c-2.31.26-4.22-.74-6.08-1.91-1.27-.78-2.54-1.59-3.84-2.34a27.23,27.23,0,0,1-5.76-4.42,17,17,0,0,1-2.09-2.61c-.81-1.26-1.47-2.61-2.19-3.92-.12-.2-.17-.43-.3-.6-2.05-2.59-.83-7.81,1.48-9.72a11.17,11.17,0,0,0,1.9-2.4,8.4,8.4,0,0,1,4.06-3.09,11,11,0,0,0,6.32-6.39,15.42,15.42,0,0,1,3.65-5.56,5,5,0,0,1,3.41-1.31c.54-.05,1.08,0,1.63,0a4.08,4.08,0,0,1,2.17.62,9.58,9.58,0,0,0,1.82.82,28.45,28.45,0,0,0,3.23.85c1.35.28,2.71.44,4.06.67,1.19.21,2.38.45,3.56.68,1.94.39,3.89.75,5.82,1.16a8.14,8.14,0,0,1,4.23,2.27,27.67,27.67,0,0,1,4.71,6.6,6,6,0,0,1,.45,3.93A8.82,8.82,0,0,1,194.5,155a11.64,11.64,0,0,0-2.78,5,4.48,4.48,0,0,0-.12,2.18,2.42,2.42,0,0,0,.85,1.35,1.32,1.32,0,0,0,1.58.18c1.33-.69,2.84-1,4.07-1.89.26-.18.54-.33.8-.53a20.19,20.19,0,0,1,8.53-4.12c2.12-.42,4.22-1.06,6.35-1.39a31.64,31.64,0,0,0,8.48-2.85,50.64,50.64,0,0,1,9.25-3.36,15.7,15.7,0,0,1,2.64-.38c1.78-.12,3.56-.21,5.33-.33a32.73,32.73,0,0,1,10.11.57,5.68,5.68,0,0,1,.65.17c4,1.55,8.32,2.38,12.42,3.77a33.49,33.49,0,0,1,6.32,2.7,21.6,21.6,0,0,0,3.59,1.55c1.19.44,2.43.75,3.64,1.14a17.36,17.36,0,0,1,6.84,4.07,67.07,67.07,0,0,1,4.79,5.6,13.18,13.18,0,0,0,3.4,3.05,29.27,29.27,0,0,0,5.88,3c.05,0,.14,0,.15-.09.62-1.57,1.28-3.12,1.82-4.72a10.23,10.23,0,0,0,.21-4.76c-.31-2.12-.42-4.26-.68-6.37a40.74,40.74,0,0,1-.21-5.94,8.87,8.87,0,0,1,.3-2.17,18.28,18.28,0,0,1,3.18-6.6,17.46,17.46,0,0,0,1.48-2.12,14.77,14.77,0,0,1,4.48-4.39,10.25,10.25,0,0,0,.85-.62,2.6,2.6,0,0,1,3.55.05,10.73,10.73,0,0,1,2.38,2.85,10.74,10.74,0,0,0,3.18,3.26,49.37,49.37,0,0,0,6.71,4.26,1.16,1.16,0,0,1,.24.14c2,1.3,3.93,2.62,5.89,3.92.82.56,1.64,1.11,2.5,1.6,1.45.81,2.94,1.54,4.38,2.37.94.53,1.81,1.18,2.72,1.77l1,.6a4.93,4.93,0,0,1,.75.41c1.19,1.06,2.65,1.78,3.67,3.06a6.39,6.39,0,0,0,1.42,1.27,6.83,6.83,0,0,1,3,5.62c0,.51,0,1,0,1.53A7.45,7.45,0,0,1,348.7,174c-.87,1.41-1.69,2.86-2.61,4.24s-1.84,2.52-2.79,3.78a9.84,9.84,0,0,1-2.62,2.48,17.88,17.88,0,0,1-7.1,2.67c-.89.14-1.77.28-2.66.36a14,14,0,0,1-5.54-.85,20.89,20.89,0,0,0-4.59-1.29,8.42,8.42,0,0,0-1.23,0c-.64,0-1.27.09-1.91.07a2.42,2.42,0,0,0-1.59.54q-1.81,1.34-3.64,2.64a4.54,4.54,0,0,0-1.72,2.12,14,14,0,0,1-.82,1.57c.2.61.47,1.3.63,2a10.62,10.62,0,0,1,0,4.56c-.26,1.37-.39,2.77-.58,4.16a1.55,1.55,0,0,0,0,.48,5.73,5.73,0,0,1-.86,3.84,14.57,14.57,0,0,1-2.9,3.9,20.94,20.94,0,0,0-4.19,6.47c-.55,1.14-1,2.32-1.59,3.52l.73.58a3,3,0,0,1,1,3.43,6,6,0,0,0-.31.9,12.24,12.24,0,0,1-3.6,6.31,24.24,24.24,0,0,1-3.72,3.58,3.61,3.61,0,0,0-.52.52,2,2,0,0,0,1.63-.24,5.65,5.65,0,0,1,4.16-.57,1.94,1.94,0,0,1,1.38,1.1,5.07,5.07,0,0,1,.36.79,18.26,18.26,0,0,1,1.11,7.61,7.92,7.92,0,0,1-.48,1.84.89.89,0,0,0,.29,1.1,19.85,19.85,0,0,0,3.72,2.83c2,1.06,3.8,2.33,5.75,3.42a51.77,51.77,0,0,0,5.22,2.6,10.71,10.71,0,0,0,6.94.36,12.68,12.68,0,0,1,7.17,0c1.7.53,3.47.83,5.2,1.24a18.72,18.72,0,0,1,5.32,2.11c1.58,1,3.17,1.92,4.7,3a34.05,34.05,0,0,1,6.32,5.41,45,45,0,0,0,3.68,3.5,7.77,7.77,0,0,0,1.88,1.13c.83.4,1.7.71,2.57,1a22.64,22.64,0,0,1,4.57,2.4,3.17,3.17,0,0,1,.45.35c2,2,3.64,4.2,4.15,7.07a6.52,6.52,0,0,1,.12,1.81,20.84,20.84,0,0,0,.22,4.87,15.29,15.29,0,0,1-.34,5.23C369.8,297.94,369.37,299.31,368.94,300.68Z"/><circle class="cls-99" cx="237.58" cy="237.58" r="237.58"/></g></g></svg>